<?xml version="1.0" encoding="utf-8"?>
<!-- Generator: Adobe Illustrator 25.0.0, SVG Export Plug-In . SVG Version: 6.00 Build 0)  -->
<svg version="1.1" xmlns="http://www.w3.org/2000/svg" xmlns:xlink="http://www.w3.org/1999/xlink" x="0px" y="0px"
	 viewBox="0 0 105 86" style="enable-background:new 0 0 105 86;" xml:space="preserve">
<style type="text/css">
	.st0{fill-rule:evenodd;clip-rule:evenodd;fill:#1B1464;}
	.st1{fill-rule:evenodd;clip-rule:evenodd;fill:#FFFFFF;}
</style>
<g id="Layer_1">
	<polygon class="st0" points="51.5,48.6 29.3,36.9 1.6,51.3 28.9,3.3 	"/>
	<polygon class="st1" points="29.4,16 32.9,22 38.4,34.3 29.4,28.1 20.2,34.3 25.9,22 	"/>
	<path class="st0" d="M101.9,26.2c-0.1,0.8-9.7-12.7-9.7,15.5c0,4.8-6.2,18.2-7.7,13.9l-13-19.3c-6.1-14.4-16.8-14.3-12,2.7
		l0.2,22.3c0.3,6.6-20.3-6.7-21.5-9.6l0,0c-2.4-5.6-7.4-14.5-7.4-8.5v12.8c0,1.2,0.4,2.3,1.1,3.3l15.5,21.3c1,1.4,2.7,2.3,4.5,2.3
		h23.6c1.7,0,3.3-0.8,4.4-2.1l15.3-19.2c0.8-1,1.2-2.2,1.2-3.5"/>
</g>
<g id="Layer_2">
</g>
</svg>
